<svg data-v-d3f97b9e="" xmlns="http://www.w3.org/2000/svg" viewBox="0 0 462 90"><!----><!----><!----><g data-v-d3f97b9e="" id="fc323b8b-29f7-46a9-93e5-cc93a931230b" fill="#000000" transform="matrix(5.808325290679932,0,0,5.808325290679932,55.08881759643555,-1.205227255821228)"><path d="M2.60 11.75L2.60 11.75Q2.60 12.19 2.73 12.40L2.73 12.40L2.73 12.40Q2.86 12.60 3.21 12.68L3.21 12.68L3.21 12.68Q3.57 12.77 4.35 12.77L4.35 12.77L4.35 12.77Q4.40 12.77 4.40 12.85L4.40 12.85L4.40 12.85Q4.40 12.94 4.35 12.94L4.35 12.94L4.35 12.94Q3.78 12.94 3.46 12.92L3.46 12.92L2.24 12.91L1.32 12.92L1.32 12.92Q1.06 12.94 0.62 12.94L0.62 12.94L0.62 12.94Q0.59 12.94 0.59 12.85L0.59 12.85L0.59 12.85Q0.59 12.77 0.62 12.77L0.62 12.77L0.62 12.77Q1.16 12.77 1.42 12.70L1.42 12.70L1.42 12.70Q1.68 12.63 1.77 12.43L1.77 12.43L1.77 12.43Q1.86 12.22 1.86 11.80L1.86 11.80L1.86 5.32L1.86 5.32Q1.86 4.90 1.77 4.70L1.77 4.70L1.77 4.70Q1.68 4.51 1.42 4.43L1.42 4.43L1.42 4.43Q1.16 4.35 0.62 4.35L0.62 4.35L0.62 4.35Q0.59 4.35 0.59 4.27L0.59 4.27L0.59 4.27Q0.59 4.19 0.62 4.19L0.62 4.19L1.30 4.20L1.30 4.20Q1.89 4.23 2.23 4.23L2.23 4.23L2.23 4.23Q2.56 4.23 3.00 4.19L3.00 4.19L3.00 4.19Q4.09 4.14 4.19 4.14L4.19 4.14L4.19 4.14Q5.42 4.14 6.19 4.71L6.19 4.71L6.19 4.71Q6.96 5.28 6.96 6.44L6.96 6.44L6.96 6.44Q6.96 7.38 6.50 8.02L6.50 8.02L6.50 8.02Q6.03 8.65 5.33 8.96L5.33 8.96L5.33 8.96Q4.62 9.27 3.86 9.27L3.86 9.27L3.86 9.27Q3.44 9.27 3.18 9.20L3.18 9.20L3.18 9.20Q3.14 9.20 3.14 9.13L3.14 9.13L3.14 9.13Q3.14 9.09 3.16 9.04L3.16 9.04L3.16 9.04Q3.18 9.00 3.21 9.02L3.21 9.02L3.21 9.02Q3.43 9.07 3.71 9.07L3.71 9.07L3.71 9.07Q4.70 9.07 5.40 8.47L5.40 8.47L5.40 8.47Q6.09 7.87 6.09 6.72L6.09 6.72L6.09 6.72Q6.09 5.98 5.80 5.44L5.80 5.44L5.80 5.44Q5.50 4.90 4.99 4.61L4.99 4.61L4.99 4.61Q4.48 4.33 3.86 4.33L3.86 4.33L3.86 4.33Q3.29 4.33 3.05 4.38L3.05 4.38L3.05 4.38Q2.81 4.44 2.71 4.64L2.71 4.64L2.71 4.64Q2.60 4.84 2.60 5.35L2.60 5.35L2.60 11.75ZM13.33 12.18L13.36 12.18L13.36 12.18Q13.41 12.18 13.43 12.24L13.43 12.24L13.43 12.24Q13.44 12.31 13.38 12.33L13.38 12.33L11.94 13.02L11.94 13.02Q11.89 13.05 11.83 13.05L11.83 13.05L11.83 13.05Q11.68 13.05 11.54 12.80L11.54 12.80L11.54 12.80Q11.41 12.54 11.38 12.11L11.38 12.11L10.46 12.61L10.46 12.61Q10.00 12.85 9.74 12.94L9.74 12.94L9.74 12.94Q9.49 13.03 9.24 13.03L9.24 13.03L9.24 13.03Q8.81 13.03 8.58 12.80L8.58 12.80L8.58 12.80Q8.36 12.57 8.36 12.24L8.36 12.24L8.36 12.24Q8.36 11.89 8.64 11.65L8.64 11.65L8.64 11.65Q8.92 11.42 9.62 11.17L9.62 11.17L11.38 10.54L11.38 9.37L11.38 9.37Q11.38 8.41 11.12 8.05L11.12 8.05L11.12 8.05Q10.86 7.69 10.43 7.69L10.43 7.69L10.43 7.69Q9.93 7.69 9.65 8.05L9.65 8.05L9.65 8.05Q9.37 8.41 9.30 8.86L9.30 8.86L9.30 8.86Q9.27 9.06 9.18 9.19L9.18 9.19L9.18 9.19Q9.09 9.32 8.85 9.32L8.85 9.32L8.85 9.32Q8.65 9.32 8.54 9.23L8.54 9.23L8.54 9.23Q8.43 9.13 8.43 8.95L8.43 8.95L8.43 8.95Q8.43 8.64 8.83 8.27L8.83 8.27L8.83 8.27Q9.23 7.91 9.80 7.66L9.80 7.66L9.80 7.66Q10.37 7.41 10.85 7.41L10.85 7.41L10.85 7.41Q11.38 7.41 11.70 7.79L11.70 7.79L11.70 7.79Q12.03 8.18 12.03 8.95L12.03 8.95L12.03 11.42L12.03 11.42Q12.03 11.94 12.14 12.17L12.14 12.17L12.14 12.17Q12.26 12.39 12.56 12.39L12.56 12.39L12.56 12.39Q12.82 12.39 13.33 12.18L13.33 12.18ZM10.35 12.46L11.38 11.94L11.38 11.90L11.38 10.70L9.76 11.31L9.76 11.31Q9.45 11.42 9.32 11.58L9.32 11.58L9.32 11.58Q9.20 11.73 9.20 11.97L9.20 11.97L9.20 11.97Q9.20 12.26 9.37 12.43L9.37 12.43L9.37 12.43Q9.53 12.59 9.81 12.59L9.81 12.59L9.81 12.59Q10.07 12.59 10.35 12.46L10.35 12.46ZM16.65 13.12L16.65 13.12Q15.85 13.12 15.23 12.72L15.23 12.72L15.23 12.72Q14.62 12.32 14.28 11.64L14.28 11.64L14.28 11.64Q13.94 10.96 13.94 10.16L13.94 10.16L13.94 10.16Q13.94 9.25 14.39 8.62L14.39 8.62L14.39 8.62Q14.83 7.98 15.51 7.67L15.51 7.67L15.51 7.67Q16.18 7.35 16.90 7.35L16.90 7.35L16.90 7.35Q17.71 7.35 18.32 7.76L18.32 7.76L18.32 7.76Q18.93 8.16 19.26 8.83L19.26 8.83L19.26 8.83Q19.59 9.49 19.59 10.23L19.59 10.23L19.59 10.23Q19.59 11.10 19.19 11.76L19.19 11.76L19.19 11.76Q18.79 12.42 18.12 12.77L18.12 12.77L18.12 12.77Q17.44 13.12 16.65 13.12L16.65 13.12ZM17.04 12.87L17.04 12.87Q17.85 12.87 18.31 12.32L18.31 12.32L18.31 12.32Q18.77 11.77 18.77 10.60L18.77 10.60L18.77 10.60Q18.77 9.76 18.48 9.08L18.48 9.08L18.48 9.08Q18.19 8.40 17.65 8.01L17.65 8.01L17.65 8.01Q17.12 7.62 16.44 7.62L16.44 7.62L16.44 7.62Q15.64 7.62 15.19 8.17L15.19 8.17L15.19 8.17Q14.74 8.72 14.74 9.76L14.74 9.76L14.74 9.76Q14.74 10.60 15.04 11.30L15.04 11.30L15.04 11.30Q15.33 12.01 15.85 12.44L15.85 12.44L15.85 12.44Q16.37 12.87 17.04 12.87L17.04 12.87ZM20.68 12.94L20.68 12.94Q20.64 12.94 20.64 12.85L20.64 12.85L20.64 12.85Q20.64 12.77 20.68 12.77L20.68 12.77L20.68 12.77Q21.08 12.77 21.27 12.70L21.27 12.70L21.27 12.70Q21.45 12.63 21.52 12.43L21.52 12.43L21.52 12.43Q21.59 12.22 21.59 11.80L21.59 11.80L21.59 4.54L21.59 4.54Q21.59 4.02 21.49 3.79L21.49 3.79L21.49 3.79Q21.39 3.57 21.14 3.57L21.14 3.57L21.14 3.57Q20.92 3.57 20.47 3.78L20.47 3.78L20.44 3.78L20.44 3.78Q20.38 3.78 20.36 3.71L20.36 3.71L20.36 3.71Q20.34 3.64 20.40 3.63L20.40 3.63L22.12 2.80L22.12 2.80Q22.15 2.79 22.19 2.79L22.19 2.79L22.19 2.79Q22.22 2.79 22.25 2.81L22.25 2.81L22.25 2.81Q22.29 2.84 22.29 2.88L22.29 2.88L22.29 11.80L22.29 11.80Q22.29 12.22 22.35 12.42L22.35 12.42L22.35 12.42Q22.41 12.61 22.60 12.69L22.60 12.69L22.60 12.69Q22.79 12.77 23.20 12.77L23.20 12.77L23.20 12.77Q23.24 12.77 23.24 12.85L23.24 12.85L23.24 12.85Q23.24 12.94 23.20 12.94L23.20 12.94L23.20 12.94Q22.89 12.94 22.69 12.92L22.69 12.92L21.94 12.91L21.18 12.92L21.18 12.92Q21.00 12.94 20.68 12.94L20.68 12.94ZM29.46 12.18L29.48 12.18L29.48 12.18Q29.54 12.18 29.55 12.24L29.55 12.24L29.55 12.24Q29.57 12.31 29.51 12.33L29.51 12.33L28.07 13.02L28.07 13.02Q28.01 13.05 27.96 13.05L27.96 13.05L27.96 13.05Q27.80 13.05 27.67 12.80L27.67 12.80L27.67 12.80Q27.54 12.54 27.51 12.11L27.51 12.11L26.59 12.61L26.59 12.61Q26.12 12.85 25.87 12.94L25.87 12.94L25.87 12.94Q25.62 13.03 25.37 13.03L25.37 13.03L25.37 13.03Q24.93 13.03 24.71 12.80L24.71 12.80L24.71 12.80Q24.49 12.57 24.49 12.24L24.49 12.24L24.49 12.24Q24.49 11.89 24.77 11.65L24.77 11.65L24.77 11.65Q25.05 11.42 25.75 11.17L25.75 11.17L27.51 10.54L27.51 9.37L27.51 9.37Q27.51 8.41 27.25 8.05L27.25 8.05L27.25 8.05Q26.99 7.69 26.56 7.69L26.56 7.69L26.56 7.69Q26.05 7.69 25.77 8.05L25.77 8.05L25.77 8.05Q25.49 8.41 25.42 8.86L25.42 8.86L25.42 8.86Q25.40 9.06 25.31 9.19L25.31 9.19L25.31 9.19Q25.21 9.32 24.98 9.32L24.98 9.32L24.98 9.32Q24.78 9.32 24.67 9.23L24.67 9.23L24.67 9.23Q24.56 9.13 24.56 8.95L24.56 8.95L24.56 8.95Q24.56 8.64 24.96 8.27L24.96 8.27L24.96 8.27Q25.35 7.91 25.93 7.66L25.93 7.66L25.93 7.66Q26.50 7.41 26.98 7.41L26.98 7.41L26.98 7.41Q27.51 7.41 27.83 7.79L27.83 7.79L27.83 7.79Q28.15 8.18 28.15 8.95L28.15 8.95L28.15 11.42L28.15 11.42Q28.15 11.94 28.27 12.17L28.27 12.17L28.27 12.17Q28.39 12.39 28.69 12.39L28.69 12.39L28.69 12.39Q28.95 12.39 29.46 12.18L29.46 12.18ZM26.47 12.46L27.51 11.94L27.51 11.90L27.51 10.70L25.89 11.31L25.89 11.31Q25.58 11.42 25.45 11.58L25.45 11.58L25.45 11.58Q25.33 11.73 25.33 11.97L25.33 11.97L25.33 11.97Q25.33 12.26 25.49 12.43L25.49 12.43L25.49 12.43Q25.66 12.59 25.94 12.59L25.94 12.59L25.94 12.59Q26.19 12.59 26.47 12.46L26.47 12.46ZM38.49 13.10L38.49 13.10Q36.96 13.10 35.83 12.52L35.83 12.52L35.83 12.52Q34.71 11.93 34.11 10.92L34.11 10.92L34.11 10.92Q33.52 9.91 33.52 8.67L33.52 8.67L33.52 8.67Q33.52 7.31 34.21 6.26L34.21 6.26L34.21 6.26Q34.90 5.21 36.11 4.62L36.11 4.62L36.11 4.62Q37.32 4.03 38.85 4.03L38.85 4.03L38.85 4.03Q39.54 4.03 40.15 4.17L40.15 4.17L40.15 4.17Q40.75 4.31 41.16 4.56L41.16 4.56L41.16 4.56Q41.26 4.63 41.28 4.68L41.28 4.68L41.28 4.68Q41.30 4.73 41.31 4.79L41.31 4.79L41.31 4.79Q41.31 4.86 41.31 4.89L41.31 4.89L41.48 6.36L41.48 6.36Q41.48 6.40 41.41 6.41L41.41 6.41L41.41 6.41Q41.33 6.41 41.31 6.37L41.31 6.37L41.31 6.37Q41.05 5.38 40.26 4.85L40.26 4.85L40.26 4.85Q39.48 4.33 38.28 4.33L38.28 4.33L38.28 4.33Q36.43 4.33 35.41 5.35L35.41 5.35L35.41 5.35Q34.38 6.37 34.38 8.18L34.38 8.18L34.38 8.18Q34.38 9.52 34.96 10.59L34.96 10.59L34.96 10.59Q35.53 11.66 36.55 12.26L36.55 12.26L36.55 12.26Q37.56 12.87 38.82 12.87L38.82 12.87L38.82 12.87Q39.58 12.87 39.99 12.74L39.99 12.74L39.99 12.74Q40.40 12.61 40.59 12.25L40.59 12.25L40.59 12.25Q40.78 11.89 40.78 11.17L40.78 11.17L40.78 11.17Q40.78 10.44 40.68 10.16L40.68 10.16L40.68 10.16Q40.59 9.87 40.26 9.77L40.26 9.77L40.26 9.77Q39.94 9.67 39.14 9.67L39.14 9.67L39.14 9.67Q39.06 9.67 39.06 9.56L39.06 9.56L39.06 9.56Q39.06 9.52 39.08 9.48L39.08 9.48L39.08 9.48Q39.10 9.45 39.13 9.45L39.13 9.45L39.13 9.45Q40.21 9.52 40.87 9.52L40.87 9.52L40.87 9.52Q41.50 9.52 42.21 9.48L42.21 9.48L42.21 9.48Q42.24 9.48 42.26 9.51L42.26 9.51L42.26 9.51Q42.28 9.55 42.28 9.58L42.28 9.58L42.28 9.58Q42.28 9.67 42.21 9.67L42.21 9.67L42.21 9.67Q41.85 9.66 41.69 9.77L41.69 9.77L41.69 9.77Q41.54 9.87 41.50 10.19L41.50 10.19L41.50 10.19Q41.45 10.51 41.45 11.31L41.45 11.31L41.45 11.31Q41.45 11.94 41.50 12.21L41.50 12.21L41.50 12.21Q41.55 12.47 41.55 12.54L41.55 12.54L41.55 12.54Q41.55 12.63 41.52 12.66L41.52 12.66L41.52 12.66Q41.50 12.68 41.40 12.71L41.40 12.71L41.40 12.71Q39.76 13.10 38.49 13.10L38.49 13.10ZM49.56 12.17L49.59 12.17L49.59 12.17Q49.64 12.17 49.67 12.23L49.67 12.23L49.67 12.23Q49.69 12.29 49.63 12.32L49.63 12.32L48.06 13.05L48.01 13.06L48.01 13.06Q47.88 13.06 47.75 12.75L47.75 12.75L47.75 12.75Q47.61 12.43 47.61 11.94L47.61 11.94L47.61 11.82L47.61 11.82Q47.04 12.46 46.48 12.75L46.48 12.75L46.48 12.75Q45.92 13.03 45.33 13.03L45.33 13.03L45.33 13.03Q44.65 13.03 44.26 12.60L44.26 12.60L44.26 12.60Q43.88 12.17 43.88 11.33L43.88 11.33L43.88 9.16L43.88 9.16Q43.88 8.58 43.79 8.34L43.79 8.34L43.79 8.34Q43.69 8.09 43.47 8.09L43.47 8.09L43.47 8.09Q43.26 8.09 42.97 8.23L42.97 8.23L42.94 8.23L42.94 8.23Q42.88 8.23 42.86 8.16L42.86 8.16L42.86 8.16Q42.84 8.09 42.90 8.08L42.90 8.08L44.37 7.42L44.42 7.41L44.42 7.41Q44.45 7.41 44.49 7.43L44.49 7.43L44.49 7.43Q44.53 7.46 44.53 7.50L44.53 7.50L44.53 10.91L44.53 10.91Q44.53 11.75 44.83 12.15L44.83 12.15L44.83 12.15Q45.12 12.56 45.71 12.56L45.71 12.56L45.71 12.56Q46.20 12.56 46.70 12.30L46.70 12.30L46.70 12.30Q47.21 12.04 47.61 11.58L47.61 11.58L47.61 9.16L47.61 9.16Q47.61 8.58 47.52 8.34L47.52 8.34L47.52 8.34Q47.43 8.09 47.19 8.09L47.19 8.09L47.19 8.09Q46.98 8.09 46.69 8.23L46.69 8.23L46.66 8.23L46.66 8.23Q46.61 8.23 46.59 8.16L46.59 8.16L46.59 8.16Q46.58 8.09 46.63 8.08L46.63 8.08L48.10 7.42L48.15 7.41L48.15 7.41Q48.19 7.41 48.22 7.43L48.22 7.43L48.22 7.43Q48.26 7.46 48.26 7.50L48.26 7.50L48.26 11.47L48.26 11.47Q48.26 11.94 48.38 12.16L48.38 12.16L48.38 12.16Q48.50 12.38 48.78 12.38L48.78 12.38L48.78 12.38Q48.92 12.38 49.12 12.31L49.12 12.31L49.12 12.31Q49.32 12.25 49.56 12.17L49.56 12.17ZM55.44 12.18L55.47 12.18L55.47 12.18Q55.52 12.18 55.54 12.24L55.54 12.24L55.54 12.24Q55.55 12.31 55.50 12.33L55.50 12.33L54.05 13.02L54.05 13.02Q54.00 13.05 53.94 13.05L53.94 13.05L53.94 13.05Q53.79 13.05 53.66 12.80L53.66 12.80L53.66 12.80Q53.52 12.54 53.49 12.11L53.49 12.11L52.57 12.61L52.57 12.61Q52.11 12.85 51.86 12.94L51.86 12.94L51.86 12.94Q51.60 13.03 51.35 13.03L51.35 13.03L51.35 13.03Q50.92 13.03 50.69 12.80L50.69 12.80L50.69 12.80Q50.47 12.57 50.47 12.24L50.47 12.24L50.47 12.24Q50.47 11.89 50.75 11.65L50.75 11.65L50.75 11.65Q51.03 11.42 51.73 11.17L51.73 11.17L53.49 10.54L53.49 9.37L53.49 9.37Q53.49 8.41 53.24 8.05L53.24 8.05L53.24 8.05Q52.98 7.69 52.54 7.69L52.54 7.69L52.54 7.69Q52.04 7.69 51.76 8.05L51.76 8.05L51.76 8.05Q51.48 8.41 51.41 8.86L51.41 8.86L51.41 8.86Q51.38 9.06 51.29 9.19L51.29 9.19L51.29 9.19Q51.20 9.32 50.96 9.32L50.96 9.32L50.96 9.32Q50.76 9.32 50.65 9.23L50.65 9.23L50.65 9.23Q50.54 9.13 50.54 8.95L50.54 8.95L50.54 8.95Q50.54 8.64 50.94 8.27L50.94 8.27L50.94 8.27Q51.34 7.91 51.91 7.66L51.91 7.66L51.91 7.66Q52.49 7.41 52.96 7.41L52.96 7.41L52.96 7.41Q53.49 7.41 53.82 7.79L53.82 7.79L53.82 7.79Q54.14 8.18 54.14 8.95L54.14 8.95L54.14 11.42L54.14 11.42Q54.14 11.94 54.26 12.17L54.26 12.17L54.26 12.17Q54.38 12.39 54.67 12.39L54.67 12.39L54.67 12.39Q54.94 12.39 55.44 12.18L55.44 12.18ZM52.46 12.46L53.49 11.94L53.49 11.90L53.49 10.70L51.87 11.31L51.87 11.31Q51.56 11.42 51.44 11.58L51.44 11.58L51.44 11.58Q51.31 11.73 51.31 11.97L51.31 11.97L51.31 11.97Q51.31 12.26 51.48 12.43L51.48 12.43L51.48 12.43Q51.65 12.59 51.93 12.59L51.93 12.59L51.93 12.59Q52.18 12.59 52.46 12.46L52.46 12.46ZM56.34 12.94L56.34 12.94Q56.31 12.94 56.31 12.85L56.31 12.85L56.31 12.85Q56.31 12.77 56.34 12.77L56.34 12.77L56.34 12.77Q56.74 12.77 56.93 12.70L56.93 12.70L56.93 12.70Q57.12 12.63 57.19 12.43L57.19 12.43L57.19 12.43Q57.26 12.22 57.26 11.80L57.26 11.80L57.26 9.16L57.26 9.16Q57.26 8.64 57.16 8.41L57.16 8.41L57.16 8.41Q57.05 8.19 56.80 8.19L56.80 8.19L56.80 8.19Q56.53 8.19 56.13 8.40L56.13 8.40L56.11 8.40L56.11 8.40Q56.06 8.40 56.03 8.33L56.03 8.33L56.03 8.33Q56.00 8.26 56.06 8.23L56.06 8.23L57.79 7.42L57.85 7.41L57.85 7.41Q57.88 7.41 57.91 7.43L57.91 7.43L57.91 7.43Q57.95 7.46 57.95 7.50L57.95 7.50L57.95 7.50Q57.95 7.59 57.93 8.06L57.93 8.06L57.93 8.06Q57.92 8.53 57.92 9.14L57.92 9.14L57.92 11.80L57.92 11.80Q57.92 12.22 57.98 12.43L57.98 12.43L57.98 12.43Q58.04 12.63 58.23 12.70L58.23 12.70L58.23 12.70Q58.42 12.77 58.83 12.77L58.83 12.77L58.83 12.77Q58.87 12.77 58.87 12.85L58.87 12.85L58.87 12.85Q58.87 12.94 58.83 12.94L58.83 12.94L58.83 12.94Q58.51 12.94 58.32 12.92L58.32 12.92L57.58 12.91L56.85 12.92L56.85 12.92Q56.66 12.94 56.34 12.94L56.34 12.94ZM57.47 5.71L57.47 5.71Q57.20 5.71 57.06 5.57L57.06 5.57L57.06 5.57Q56.91 5.43 56.91 5.18L56.91 5.18L56.91 5.18Q56.91 4.93 57.06 4.79L57.06 4.79L57.06 4.79Q57.20 4.65 57.47 4.65L57.47 4.65L57.47 4.65Q57.72 4.65 57.86 4.79L57.86 4.79L57.86 4.79Q58.00 4.93 58.00 5.18L58.00 5.18L58.00 5.18Q58.00 5.43 57.86 5.57L57.86 5.57L57.86 5.57Q57.72 5.71 57.47 5.71L57.47 5.71ZM66.28 12.77L66.28 12.77Q66.32 12.77 66.32 12.85L66.32 12.85L66.32 12.85Q66.32 12.94 66.28 12.94L66.28 12.94L66.28 12.94Q65.95 12.94 65.77 12.92L65.77 12.92L65.04 12.91L64.30 12.92L64.30 12.92Q64.12 12.94 63.80 12.94L63.80 12.94L63.80 12.94Q63.76 12.94 63.76 12.85L63.76 12.85L63.76 12.85Q63.76 12.77 63.80 12.77L63.80 12.77L63.80 12.77Q64.20 12.77 64.39 12.70L64.39 12.70L64.39 12.70Q64.57 12.63 64.64 12.43L64.64 12.43L64.64 12.43Q64.71 12.22 64.71 11.80L64.71 11.80L64.71 9.46L64.71 9.46Q64.71 8.61 64.39 8.22L64.39 8.22L64.39 8.22Q64.06 7.83 63.38 7.83L63.38 7.83L63.38 7.83Q62.93 7.83 62.46 8.09L62.46 8.09L62.46 8.09Q61.99 8.34 61.60 8.79L61.60 8.79L61.60 11.80L61.60 11.80Q61.60 12.22 61.66 12.43L61.66 12.43L61.66 12.43Q61.73 12.63 61.92 12.70L61.92 12.70L61.92 12.70Q62.10 12.77 62.51 12.77L62.51 12.77L62.51 12.77Q62.55 12.77 62.55 12.85L62.55 12.85L62.55 12.85Q62.55 12.94 62.51 12.94L62.51 12.94L62.51 12.94Q62.19 12.94 62.01 12.92L62.01 12.92L61.28 12.91L60.54 12.92L60.54 12.92Q60.35 12.94 60.03 12.94L60.03 12.94L60.03 12.94Q59.99 12.94 59.99 12.85L59.99 12.85L59.99 12.85Q59.99 12.77 60.03 12.77L60.03 12.77L60.03 12.77Q60.44 12.77 60.62 12.70L60.62 12.70L60.62 12.70Q60.80 12.63 60.87 12.43L60.87 12.43L60.87 12.43Q60.94 12.22 60.94 11.80L60.94 11.80L60.94 9.00L60.94 9.00Q60.94 8.51 60.83 8.30L60.83 8.30L60.83 8.30Q60.72 8.09 60.44 8.09L60.44 8.09L60.44 8.09Q60.21 8.09 59.65 8.30L59.65 8.30L59.63 8.30L59.63 8.30Q59.57 8.30 59.55 8.24L59.55 8.24L59.55 8.24Q59.53 8.18 59.58 8.15L59.58 8.15L61.14 7.42L61.14 7.42Q61.17 7.41 61.21 7.41L61.21 7.41L61.21 7.41Q61.32 7.41 61.46 7.72L61.46 7.72L61.46 7.72Q61.60 8.04 61.60 8.53L61.60 8.53L61.60 8.58L61.60 8.58Q62.16 7.94 62.68 7.64L62.68 7.64L62.68 7.64Q63.20 7.35 63.76 7.35L63.76 7.35L63.76 7.35Q64.54 7.35 64.95 7.77L64.95 7.77L64.95 7.77Q65.37 8.19 65.37 9.04L65.37 9.04L65.37 11.80L65.37 11.80Q65.37 12.22 65.43 12.43L65.43 12.43L65.43 12.43Q65.49 12.63 65.68 12.70L65.68 12.70L65.68 12.70Q65.87 12.77 66.28 12.77L66.28 12.77ZM67.40 12.94L67.40 12.94Q67.37 12.94 67.37 12.85L67.37 12.85L67.37 12.85Q67.37 12.77 67.40 12.77L67.40 12.77L67.40 12.77Q67.80 12.77 67.99 12.70L67.99 12.70L67.99 12.70Q68.18 12.63 68.25 12.43L68.25 12.43L68.25 12.43Q68.32 12.22 68.32 11.80L68.32 11.80L68.32 9.16L68.32 9.16Q68.32 8.64 68.22 8.41L68.22 8.41L68.22 8.41Q68.11 8.19 67.86 8.19L67.86 8.19L67.86 8.19Q67.59 8.19 67.19 8.40L67.19 8.40L67.17 8.40L67.17 8.40Q67.12 8.40 67.09 8.33L67.09 8.33L67.09 8.33Q67.06 8.26 67.12 8.23L67.12 8.23L68.85 7.42L68.91 7.41L68.91 7.41Q68.94 7.41 68.97 7.43L68.97 7.43L68.97 7.43Q69.01 7.46 69.01 7.50L69.01 7.50L69.01 7.50Q69.01 7.59 68.99 8.06L68.99 8.06L68.99 8.06Q68.98 8.53 68.98 9.14L68.98 9.14L68.98 11.80L68.98 11.80Q68.98 12.22 69.04 12.43L69.04 12.43L69.04 12.43Q69.10 12.63 69.29 12.70L69.29 12.70L69.29 12.70Q69.48 12.77 69.89 12.77L69.89 12.77L69.89 12.77Q69.93 12.77 69.93 12.85L69.93 12.85L69.93 12.85Q69.93 12.94 69.89 12.94L69.89 12.94L69.89 12.94Q69.57 12.94 69.38 12.92L69.38 12.92L68.64 12.91L67.91 12.92L67.91 12.92Q67.72 12.94 67.40 12.94L67.40 12.94ZM68.53 5.71L68.53 5.71Q68.26 5.71 68.12 5.57L68.12 5.57L68.12 5.57Q67.97 5.43 67.97 5.18L67.97 5.18L67.97 5.18Q67.97 4.93 68.12 4.79L68.12 4.79L68.12 4.79Q68.26 4.65 68.53 4.65L68.53 4.65L68.53 4.65Q68.78 4.65 68.92 4.79L68.92 4.79L68.92 4.79Q69.06 4.93 69.06 5.18L69.06 5.18L69.06 5.18Q69.06 5.43 68.92 5.57L68.92 5.57L68.92 5.57Q68.78 5.71 68.53 5.71L68.53 5.71Z"></path></g><linearGradient data-v-d3f97b9e="" gradientTransform="rotate(25)" id="d91af88c-934f-4465-b506-e34497ff927d" x1="0%" y1="0%" x2="100%" y2="0%"><stop data-v-d3f97b9e="" offset="0%" style="stop-color: rgb(0, 102, 120); stop-opacity: 1;"></stop><stop data-v-d3f97b9e="" offset="100%" style="stop-color: rgb(79, 168, 255); stop-opacity: 1;"></stop></linearGradient><g data-v-d3f97b9e="" id="af9472f4-cfed-4006-ade1-972c3b6dca97" transform="matrix(1.482628583908081,0,0,1.482628583908081,0.7421354055404663,-8.084157343546394e-7)" stroke="none" fill="url(#d91af88c-934f-4465-b506-e34497ff927d)"><path d="M15.915 12.196a5.038 5.038 0 0 0 5.031 5.032c2.775 0 5.032-2.258 5.032-5.032s-2.257-5.032-5.032-5.032a5.038 5.038 0 0 0-5.031 5.032zm5.031-1.794c.99 0 1.794.805 1.794 1.794 0 .988-.804 1.794-1.794 1.794a1.796 1.796 0 0 1-1.793-1.794c0-.989.804-1.794 1.793-1.794zM20.946 17.881a5.037 5.037 0 0 0-5.031 5.031 5.037 5.037 0 0 0 5.031 5.032 5.037 5.037 0 0 0 5.032-5.032 5.036 5.036 0 0 0-5.032-5.031zm0 6.825a1.795 1.795 0 0 1-1.793-1.794 1.794 1.794 0 0 1 3.587 0c0 .99-.803 1.794-1.794 1.794zM5.032 17.229c2.774 0 5.031-2.258 5.031-5.032S7.807 7.164 5.032 7.164 0 9.422 0 12.196s2.257 5.033 5.032 5.033zm0-6.827c.987 0 1.793.805 1.793 1.794 0 .988-.806 1.794-1.793 1.794a1.798 1.798 0 0 1-1.794-1.794c0-.989.806-1.794 1.794-1.794zM5.032 27.944a5.037 5.037 0 0 0 5.031-5.032 5.037 5.037 0 0 0-5.031-5.031A5.037 5.037 0 0 0 0 22.912a5.037 5.037 0 0 0 5.032 5.032zm0-6.823c.987 0 1.793.804 1.793 1.791 0 .99-.806 1.794-1.793 1.794a1.796 1.796 0 0 1-1.794-1.794c0-.987.806-1.791 1.794-1.791zM5.032 42.244a5.037 5.037 0 0 0 5.031-5.031 5.038 5.038 0 0 0-5.031-5.033A5.038 5.038 0 0 0 0 37.213a5.037 5.037 0 0 0 5.032 5.031zm0-6.825c.987 0 1.793.804 1.793 1.794 0 .987-.806 1.792-1.793 1.792a1.797 1.797 0 0 1-1.794-1.792c0-.99.806-1.794 1.794-1.794z"></path><path d="M7.956 29.738a5.038 5.038 0 0 0 5.034 5.031 5.038 5.038 0 0 0 5.032-5.031 5.038 5.038 0 0 0-5.032-5.032 5.038 5.038 0 0 0-5.034 5.032zm6.826 0c0 .988-.805 1.792-1.792 1.792-.989 0-1.794-.804-1.794-1.792s.805-1.794 1.794-1.794c.988 0 1.792.806 1.792 1.794zM20.946 32.18a5.038 5.038 0 0 0-5.031 5.033 5.037 5.037 0 0 0 5.031 5.031 5.037 5.037 0 0 0 5.032-5.031 5.037 5.037 0 0 0-5.032-5.033zm0 6.825a1.795 1.795 0 0 1-1.793-1.792c0-.99.804-1.794 1.793-1.794.99 0 1.794.804 1.794 1.794 0 .987-.803 1.792-1.794 1.792z"></path><path d="M7.956 44.036a5.039 5.039 0 0 0 5.034 5.032c2.774 0 5.032-2.258 5.032-5.032s-2.258-5.031-5.032-5.031a5.038 5.038 0 0 0-5.034 5.031zm5.034-1.792c.987 0 1.792.805 1.792 1.792 0 .989-.805 1.794-1.792 1.794a1.796 1.796 0 0 1-1.794-1.794c0-.987.805-1.792 1.794-1.792zM12.99 60.703a5.038 5.038 0 0 0 5.032-5.031 5.038 5.038 0 0 0-5.032-5.032 5.038 5.038 0 0 0-5.034 5.032 5.038 5.038 0 0 0 5.034 5.031zm0-6.825c.987 0 1.792.806 1.792 1.794 0 .989-.805 1.793-1.792 1.793a1.795 1.795 0 0 1-1.794-1.793c0-.988.805-1.794 1.794-1.794zM12.99 10.062c2.774 0 5.032-2.256 5.032-5.03S15.765 0 12.99 0c-2.776 0-5.034 2.258-5.034 5.032s2.258 5.03 5.034 5.03zm0-6.824c.987 0 1.792.805 1.792 1.794 0 .987-.805 1.792-1.792 1.792a1.796 1.796 0 0 1-1.794-1.792c0-.989.805-1.794 1.794-1.794z"></path></g><!----></svg>