<svg data-v-d3f97b9e="" xmlns="http://www.w3.org/2000/svg" viewBox="0 0 25.67715229259834 60"><!----><!----><!----><!----><g data-v-d3f97b9e="" id="57ff21d9-f210-4b48-928c-9a9ec39a0f24" transform="matrix(0.9884190559387207,0,0,0.9884190559387207,-6.010805009282194e-8,-5.38943822903093e-7)" stroke="none" fill="black"><path d="M15.915 12.196a5.038 5.038 0 0 0 5.031 5.032c2.775 0 5.032-2.258 5.032-5.032s-2.257-5.032-5.032-5.032a5.038 5.038 0 0 0-5.031 5.032zm5.031-1.794c.99 0 1.794.805 1.794 1.794 0 .988-.804 1.794-1.794 1.794a1.796 1.796 0 0 1-1.793-1.794c0-.989.804-1.794 1.793-1.794zM20.946 17.881a5.037 5.037 0 0 0-5.031 5.031 5.037 5.037 0 0 0 5.031 5.032 5.037 5.037 0 0 0 5.032-5.032 5.036 5.036 0 0 0-5.032-5.031zm0 6.825a1.795 1.795 0 0 1-1.793-1.794 1.794 1.794 0 0 1 3.587 0c0 .99-.803 1.794-1.794 1.794zM5.032 17.229c2.774 0 5.031-2.258 5.031-5.032S7.807 7.164 5.032 7.164 0 9.422 0 12.196s2.257 5.033 5.032 5.033zm0-6.827c.987 0 1.793.805 1.793 1.794 0 .988-.806 1.794-1.793 1.794a1.798 1.798 0 0 1-1.794-1.794c0-.989.806-1.794 1.794-1.794zM5.032 27.944a5.037 5.037 0 0 0 5.031-5.032 5.037 5.037 0 0 0-5.031-5.031A5.037 5.037 0 0 0 0 22.912a5.037 5.037 0 0 0 5.032 5.032zm0-6.823c.987 0 1.793.804 1.793 1.791 0 .99-.806 1.794-1.793 1.794a1.796 1.796 0 0 1-1.794-1.794c0-.987.806-1.791 1.794-1.791zM5.032 42.244a5.037 5.037 0 0 0 5.031-5.031 5.038 5.038 0 0 0-5.031-5.033A5.038 5.038 0 0 0 0 37.213a5.037 5.037 0 0 0 5.032 5.031zm0-6.825c.987 0 1.793.804 1.793 1.794 0 .987-.806 1.792-1.793 1.792a1.797 1.797 0 0 1-1.794-1.792c0-.99.806-1.794 1.794-1.794z"></path><path d="M7.956 29.738a5.038 5.038 0 0 0 5.034 5.031 5.038 5.038 0 0 0 5.032-5.031 5.038 5.038 0 0 0-5.032-5.032 5.038 5.038 0 0 0-5.034 5.032zm6.826 0c0 .988-.805 1.792-1.792 1.792-.989 0-1.794-.804-1.794-1.792s.805-1.794 1.794-1.794c.988 0 1.792.806 1.792 1.794zM20.946 32.18a5.038 5.038 0 0 0-5.031 5.033 5.037 5.037 0 0 0 5.031 5.031 5.037 5.037 0 0 0 5.032-5.031 5.037 5.037 0 0 0-5.032-5.033zm0 6.825a1.795 1.795 0 0 1-1.793-1.792c0-.99.804-1.794 1.793-1.794.99 0 1.794.804 1.794 1.794 0 .987-.803 1.792-1.794 1.792z"></path><path d="M7.956 44.036a5.039 5.039 0 0 0 5.034 5.032c2.774 0 5.032-2.258 5.032-5.032s-2.258-5.031-5.032-5.031a5.038 5.038 0 0 0-5.034 5.031zm5.034-1.792c.987 0 1.792.805 1.792 1.792 0 .989-.805 1.794-1.792 1.794a1.796 1.796 0 0 1-1.794-1.794c0-.987.805-1.792 1.794-1.792zM12.99 60.703a5.038 5.038 0 0 0 5.032-5.031 5.038 5.038 0 0 0-5.032-5.032 5.038 5.038 0 0 0-5.034 5.032 5.038 5.038 0 0 0 5.034 5.031zm0-6.825c.987 0 1.792.806 1.792 1.794 0 .989-.805 1.793-1.792 1.793a1.795 1.795 0 0 1-1.794-1.793c0-.988.805-1.794 1.794-1.794zM12.99 10.062c2.774 0 5.032-2.256 5.032-5.03S15.765 0 12.99 0c-2.776 0-5.034 2.258-5.034 5.032s2.258 5.03 5.034 5.03zm0-6.824c.987 0 1.792.805 1.792 1.794 0 .987-.805 1.792-1.792 1.792a1.796 1.796 0 0 1-1.794-1.792c0-.989.805-1.794 1.794-1.794z"></path></g><!----></svg>